<svg xmlns="http://www.w3.org/2000/svg" viewBox="0 0 1440 900" width="1440" height="900">
  <defs>
    <linearGradient id="bg" x1="0" x2="1" y1="0" y2="1">
      <stop offset="0%" stop-color="#0a0f1f"/>
      <stop offset="60%" stop-color="#0b1022"/>
      <stop offset="100%" stop-color="#0a0f1f"/>
    </linearGradient>
    <linearGradient id="brand" x1="0" x2="1" y1="0" y2="0">
      <stop offset="0%" stop-color="#fde047"/>
      <stop offset="100%" stop-color="#38bdf8"/>
    </linearGradient>
    <linearGradient id="accent" x1="0" x2="1" y1="1" y2="0">
      <stop offset="0%" stop-color="#22c55e"/>
      <stop offset="100%" stop-color="#3b82f6"/>
    </linearGradient>
    <filter id="blur"><feGaussianBlur stdDeviation="60"/></filter>
  </defs>
  <rect width="1440" height="900" fill="url(#bg)"/>
  <g opacity="0.18" filter="url(#blur)">
    <circle cx="300" cy="200" r="220" fill="url(#brand)"/>
    <circle cx="1240" cy="160" r="180" fill="url(#accent)"/>
    <circle cx="1100" cy="740" r="260" fill="url(#brand)"/>
    <circle cx="180" cy="720" r="200" fill="url(#accent)"/>
  </g>
  <g opacity="0.08">
    <path d="M0,680 C240,600 420,640 720,660 C980,676 1170,616 1440,560 L1440,900 L0,900 Z" fill="#38bdf8"/>
    <path d="M0,720 C280,640 520,700 760,720 C1040,744 1240,684 1440,640 L1440,900 L0,900 Z" fill="#fde047"/>
  </g>
  <g opacity="0.65">
    <rect x="120" y="110" width="1200" height="680" rx="28" fill="none" stroke="#1f2937" stroke-width="2"/>
  </g>
  <g>
    <text x="80" y="120" fill="#e5e7eb" font-family="Inter, Arial, sans-serif" font-size="42" font-weight="800">Share a Ride, Save Together</text>
    <text x="80" y="170" fill="#9ca3af" font-family="Inter, Arial, sans-serif" font-size="22">Branded placeholder — replace with rideunishare.jpg when available</text>
  </g>
</svg>
